<svg height="512" viewBox="0 0 64 64" width="512" xmlns="http://www.w3.org/2000/svg" xmlns:xlink="http://www.w3.org/1999/xlink"><linearGradient id="New_Gradient_Swatch" gradientUnits="userSpaceOnUse" x1="32" x2="32" y1="60.266" y2="4.685"><stop offset="0" stop-color="#268a59"/><stop offset=".35" stop-color="#008b74"/><stop offset=".7" stop-color="#008a94"/><stop offset="1" stop-color="#0087b2"/></linearGradient><linearGradient id="New_Gradient_Swatch-2" x1="19.354" x2="19.354" xlink:href="#New_Gradient_Swatch" y1="60.266" y2="4.685"/><linearGradient id="New_Gradient_Swatch-3" x1="30.646" x2="30.646" xlink:href="#New_Gradient_Swatch" y1="60.266" y2="4.685"/><linearGradient id="New_Gradient_Swatch-4" gradientTransform="matrix(.243 .97 -.97 .243 42.213 -6.078)" x1="25" x2="25" xlink:href="#New_Gradient_Swatch" y1="60.266" y2="4.685"/><linearGradient id="New_Gradient_Swatch-5" x1="40" x2="40" xlink:href="#New_Gradient_Swatch" y1="60.266" y2="4.685"/><linearGradient id="New_Gradient_Swatch-6" x1="36" x2="36" xlink:href="#New_Gradient_Swatch" y1="60.266" y2="4.685"/><linearGradient id="New_Gradient_Swatch-7" x1="42" x2="42" xlink:href="#New_Gradient_Swatch" y1="60.266" y2="4.685"/><linearGradient id="New_Gradient_Swatch-8" x1="39" x2="39" xlink:href="#New_Gradient_Swatch" y1="60.266" y2="4.685"/><linearGradient id="New_Gradient_Swatch-9" x1="28" x2="28" xlink:href="#New_Gradient_Swatch" y1="60.266" y2="4.685"/><linearGradient id="New_Gradient_Swatch-10" x1="22" x2="22" xlink:href="#New_Gradient_Swatch" y1="60.266" y2="4.685"/><linearGradient id="New_Gradient_Swatch-13" x1="44" x2="44" xlink:href="#New_Gradient_Swatch" y1="60.266" y2="4.685"/><linearGradient id="New_Gradient_Swatch-14" x1="33" x2="33" xlink:href="#New_Gradient_Swatch" y1="60.266" y2="4.685"/><g id="Coding-Programming-Monitor-Software-Computer"><path d="m60 46h-1v-35a3.009 3.009 0 0 0 -3-3h-48a3.009 3.009 0 0 0 -3 3v35h-1a2.006 2.006 0 0 0 -2 2v3a5 5 0 0 0 5 5h50a5 5 0 0 0 5-5v-3a2.006 2.006 0 0 0 -2-2zm-53-35a1 1 0 0 1 1-1h48a1 1 0 0 1 1 1v35h-2v-33a1 1 0 0 0 -1-1h-44a1 1 0 0 0 -1 1v33h-2zm4 35v-32h42v32zm25 2v2h-8v-2zm24 3a3.009 3.009 0 0 1 -3 3h-50a3.009 3.009 0 0 1 -3-3v-3h22v2a2.006 2.006 0 0 0 2 2h8a2.006 2.006 0 0 0 2-2v-2h22z" fill="url(#New_Gradient_Swatch)"/><path d="m19.414 24 2.293-2.293-1.414-1.414-3 3a1 1 0 0 0 0 1.414l3 3 1.414-1.414z" fill="url(#New_Gradient_Swatch-2)"/><path d="m29.707 27.707 3-3a1 1 0 0 0 0-1.414l-3-3-1.414 1.414 2.293 2.293-2.293 2.293z" fill="url(#New_Gradient_Swatch-3)"/><path d="m20.877 23h8.246v1.999h-8.246z" fill="url(#New_Gradient_Swatch-4)" transform="matrix(.243 -.97 .97 .243 -4.351 42.426)"/><path d="m35 26h10v2h-10z" fill="url(#New_Gradient_Swatch-5)"/><path d="m35 22h2v2h-2z" fill="url(#New_Gradient_Swatch-6)"/><path d="m39 22h6v2h-6z" fill="url(#New_Gradient_Swatch-7)"/><path d="m33 30h12v2h-12z" fill="url(#New_Gradient_Swatch-8)"/><path d="m25 30h6v2h-6z" fill="url(#New_Gradient_Swatch-9)"/><path d="m21 30h2v2h-2z" fill="url(#New_Gradient_Swatch-10)"/><path d="m21 34h14v2h-14z" fill="url(#New_Gradient_Swatch-9)"/><path d="m37 34h4v2h-4z" fill="url(#New_Gradient_Swatch-8)"/><path d="m43 34h2v2h-2z" fill="url(#New_Gradient_Swatch-13)"/><path d="m21 38h24v2h-24z" fill="url(#New_Gradient_Swatch-14)"/></g></svg>